<svg width="109" height="68" viewBox="0 0 109 68" fill="none" xmlns="http://www.w3.org/2000/svg">
<path d="M86.8686 4H26.6476C24.7323 4 23.1797 5.55706 23.1797 7.47779V55.7365C23.1797 57.6572 24.7323 59.2142 26.6476 59.2142H86.8686C88.7839 59.2142 90.3366 57.6572 90.3366 55.7365V7.47779C90.3366 5.55706 88.7839 4 86.8686 4Z" fill="#F3F4F6"/>
<path d="M37.1418 26.1535C40.1153 26.1535 42.5258 23.7362 42.5258 20.7542C42.5258 17.7723 40.1153 15.355 37.1418 15.355C34.1683 15.355 31.7578 17.7723 31.7578 20.7542C31.7578 23.7362 34.1683 26.1535 37.1418 26.1535Z" fill="#C7CBD7"/>
<path d="M62.7961 16.8505H47.3594V19.3588H62.7961V16.8505Z" fill="#C7CBD7"/>
<path d="M80.1359 22.1454H47.3594V24.6537H80.1359V22.1454Z" fill="#C7CBD7"/>
<path d="M37.1418 44.2685C40.1153 44.2685 42.5258 41.8512 42.5258 38.8692C42.5258 35.8873 40.1153 33.47 37.1418 33.47C34.1683 33.47 31.7578 35.8873 31.7578 38.8692C31.7578 41.8512 34.1683 44.2685 37.1418 44.2685Z" fill="#C7CBD7"/>
<g filter="url(#filter0_d_2_783)">
<path d="M23.1797 36.1174C30.1825 36.1174 35.8594 30.4244 35.8594 23.4017C35.8594 16.379 30.1825 10.686 23.1797 10.686C16.1769 10.686 10.5 16.379 10.5 23.4017C10.5 30.4244 16.1769 36.1174 23.1797 36.1174Z" fill="white"/>
</g>
<path d="M62.7961 34.9653H47.3594V37.4737H62.7961V34.9653Z" fill="#C7CBD7"/>
<path d="M80.1359 40.2646H47.3594V42.773H80.1359V40.2646Z" fill="#C7CBD7"/>
<path d="M28.9184 22.6062H23.9722V17.646H22.3813V22.6062H17.4395V24.2016H22.3813V29.1575H23.9722V24.2016H28.9184V22.6062Z" fill="#883C84"/>
<path d="M108.499 47.5593V48.0244C108.343 48.6113 108.187 49.1938 108.031 49.7807C107.884 50.3371 107.571 50.5806 107.004 50.5849C106.557 50.5893 106.111 50.5849 105.673 50.5849C105.664 50.6414 105.655 50.6545 105.66 50.6632C105.707 50.724 105.759 50.7806 105.811 50.8371C106.782 51.8456 107.268 53.0455 107.255 54.4496C107.246 55.6408 107.255 56.8319 107.255 58.023C107.251 59.162 106.886 60.1749 106.202 61.0835C106.098 61.2226 106.024 61.4269 106.024 61.6052C106.011 62.8876 106.024 64.17 106.015 65.4525C106.006 66.9088 104.944 67.9782 103.497 67.9913C102.76 68 102.023 67.9913 101.29 67.9913C99.6038 67.9913 98.5807 66.9697 98.5807 65.2916C98.5807 64.5439 98.5807 63.7962 98.5807 63.0441H78.744C78.744 63.8701 78.7527 64.6743 78.744 65.4742C78.731 66.9045 77.6646 67.9739 76.2428 67.9913C75.4668 68 74.6952 67.9913 73.9193 67.9913C72.3674 67.9869 71.314 66.9349 71.3096 65.3829C71.3096 64.1266 71.314 62.8702 71.301 61.6139C71.301 61.4487 71.2489 61.2487 71.1536 61.1226C70.4166 60.1619 70.0568 59.0881 70.0655 57.8752C70.0742 56.8145 70.0915 55.7494 70.0655 54.6887C70.0178 53.1107 70.5337 51.7717 71.6694 50.6762C71.6824 50.6632 71.6738 50.6327 71.6781 50.5849C71.2273 50.5849 70.7764 50.5849 70.3256 50.5849C69.7577 50.5806 69.4413 50.3328 69.2982 49.7763C69.1638 49.2503 69.0338 48.7243 68.9037 48.194C68.7 47.3462 69.0771 46.855 69.9398 46.855C71.2966 46.855 72.6535 46.842 74.006 46.8637C74.3267 46.868 74.4525 46.7594 74.5565 46.4768C74.9163 45.5204 75.2978 44.5727 75.6836 43.6294C77.0664 40.2385 80.1572 38.1562 83.8116 38.1518C87.0541 38.1518 90.2923 38.1475 93.5349 38.1518C97.1675 38.1562 100.25 40.2342 101.633 43.612C102.023 44.5684 102.408 45.5291 102.777 46.4942C102.877 46.7594 103.002 46.8637 103.301 46.8593C104.632 46.8376 105.963 46.868 107.29 46.842C107.866 46.8289 108.261 47.0245 108.495 47.5506L108.499 47.5593ZM98.5504 49.3373C98.5114 49.2242 98.4854 49.1243 98.4507 49.033C97.9955 47.8809 97.5403 46.7246 97.0722 45.5769C96.4263 43.9858 95.1518 43.1338 93.4308 43.1338C90.2576 43.1338 87.0801 43.1338 83.907 43.1338C82.1513 43.1338 80.8855 43.9945 80.2266 45.6334C79.7844 46.7376 79.3466 47.8418 78.9044 48.946C78.8568 49.0677 78.8221 49.1982 78.7744 49.3373H98.5504ZM77.3482 58.0883C77.786 58.0361 78.4449 58.0144 79.0822 57.8665C79.8408 57.6927 80.1529 57.1362 79.9145 56.3928C79.4073 54.7974 78.3279 53.6975 76.7586 53.1759C75.4755 52.7499 74.1403 53.6063 73.8586 54.9061C73.5291 56.445 74.3181 57.7579 75.7356 57.9796C76.1908 58.0491 76.6589 58.0448 77.3482 58.0883ZM100.189 58.1056C100.189 58.0839 100.189 58.0578 100.193 58.0361C100.514 58.0361 100.839 58.0491 101.16 58.0361C102.456 57.9752 103.301 57.2362 103.505 55.9885C103.804 54.167 102.261 52.6412 100.562 53.1759C98.9969 53.6715 97.9305 54.78 97.4146 56.3537C97.1502 57.1536 97.4883 57.71 98.312 57.8883C98.9232 58.0187 99.5604 58.0404 100.189 58.11V58.1056Z" fill="#883C84"/>
<defs>
<filter id="filter0_d_2_783" x="0.5" y="0.686035" width="45.3594" height="45.4313" filterUnits="userSpaceOnUse" color-interpolation-filters="sRGB">
<feFlood flood-opacity="0" result="BackgroundImageFix"/>
<feColorMatrix in="SourceAlpha" type="matrix" values="0 0 0 0 0 0 0 0 0 0 0 0 0 0 0 0 0 0 127 0" result="hardAlpha"/>
<feOffset/>
<feGaussianBlur stdDeviation="5"/>
<feColorMatrix type="matrix" values="0 0 0 0 0.619608 0 0 0 0 0.631373 0 0 0 0 0.666667 0 0 0 0.25 0"/>
<feBlend mode="normal" in2="BackgroundImageFix" result="effect1_dropShadow_2_783"/>
<feBlend mode="normal" in="SourceGraphic" in2="effect1_dropShadow_2_783" result="shape"/>
</filter>
</defs>
</svg>
