<svg width="71" height="62" viewBox="0 0 71 62" fill="none" xmlns="http://www.w3.org/2000/svg">
<path d="M51.7115 0H3.28854C1.74847 0 0.5 1.55102 0.5 3.46429V51.5357C0.5 53.449 1.74847 55 3.28854 55H51.7115C53.2515 55 54.5 53.449 54.5 51.5357V3.46429C54.5 1.55102 53.2515 0 51.7115 0Z" fill="#F3F4F6"/>
<path d="M44.5 10H11.5V12H44.5V10Z" fill="#C7CBD7"/>
<path d="M44.5 25H11.5V27H44.5V25Z" fill="#C7CBD7"/>
<path d="M35.5 16H11.5V18H35.5V16Z" fill="#C7CBD7"/>
<path d="M35.5 31H11.5V33H35.5V31Z" fill="#C7CBD7"/>
<g clip-path="url(#clip0_2_2610)">
<path d="M70.343 43.8462C69.1319 35.3213 61.73 29.2961 53.1828 30.0662C46.8242 30.6407 42.2314 33.9978 39.815 39.8966C37.3867 45.8195 38.358 51.4025 42.4262 56.3899C42.5791 56.5764 42.738 56.7599 42.9359 56.9976C42.1954 57.7165 41.4999 58.3963 40.8043 59.0762C40.2617 59.6056 39.9859 60.2102 40.2887 60.9652C40.6035 61.7503 41.242 61.997 42.0275 61.997C43.9971 61.997 45.9668 62.009 47.9334 61.991C49.1116 61.982 49.7292 61.3503 49.7352 60.1741C49.7442 58.1737 49.7322 56.1734 49.7412 54.173C49.7442 53.3939 49.4564 52.7923 48.7219 52.5035C48.0264 52.2328 47.4028 52.4223 46.8872 52.9667C46.3565 53.5292 45.8229 54.0857 45.2323 54.7054C45.0105 54.4678 44.8695 54.3294 44.7406 54.176C41.374 50.2204 40.7983 44.4809 43.3016 39.8635C45.8079 35.2461 50.9464 32.581 56.0579 33.2487C62.0627 34.0339 66.8354 38.9611 67.2312 44.7847C67.6689 51.21 63.8315 56.7449 57.7787 58.3302C56.7534 58.5979 55.6681 58.646 54.6069 58.7573C53.5936 58.8626 52.901 59.5123 52.922 60.4057C52.943 61.3412 53.6865 61.991 54.7418 61.979C55.1135 61.976 55.4883 61.9338 55.86 61.9038C64.9018 61.1908 71.6142 52.8163 70.34 43.8372L70.343 43.8462Z" fill="#883C84"/>
<path d="M52.9463 45.7323C52.9852 46.2557 53.2251 46.8723 53.5788 47.2514C55.0088 48.7825 56.5138 50.2444 57.9978 51.7244C58.8192 52.5426 59.7426 52.6027 60.4351 51.9019C61.1246 51.204 61.0617 50.2835 60.2462 49.4533C59.2659 48.4576 58.3216 47.4168 57.2723 46.4993C56.3969 45.7323 56.0341 44.899 56.1031 43.7139C56.208 41.894 56.1391 40.065 56.1271 38.2421C56.1211 37.0991 55.4885 36.3801 54.5262 36.3771C53.5638 36.3771 52.9283 37.0991 52.9193 38.2361C52.9073 39.4845 52.9193 40.7358 52.9193 41.9872C52.9193 43.2386 52.8563 44.4929 52.9493 45.7353L52.9463 45.7323Z" fill="#883C84"/>
</g>
<defs>
<clipPath id="clip0_2_2610">
<rect width="32" height="32" fill="white" transform="translate(38.5 30)"/>
</clipPath>
</defs>
</svg>
