<svg width="14" height="14" viewBox="0 0 14 14" fill="none" xmlns="http://www.w3.org/2000/svg">
<g id="Layer_1">
<path id="Vector" d="M4.93361 9.7634C5.50295 9.02817 6.06667 8.29859 6.63151 7.56901C8.27776 5.44239 9.92401 3.31578 11.5703 1.18916C11.7488 0.958763 11.8903 0.940693 12.1228 1.12478C12.6786 1.56298 13.2334 2.00344 13.787 2.4439C14.0486 2.6517 14.0643 2.78836 13.8611 3.05263C12.28 5.09455 10.6989 7.13646 9.11773 9.17951C7.95323 10.6838 6.78873 12.187 5.62535 13.6914C5.31654 14.09 5.20761 14.0968 4.84377 13.7445C3.2795 12.2311 1.7141 10.7189 0.148703 9.20661C-0.0455678 9.01801 -0.0500596 8.87232 0.138597 8.67242C0.629327 8.1529 1.12006 7.63339 1.61079 7.115C1.82527 6.888 1.95217 6.88687 2.17451 7.10371C3.06277 7.9643 3.95215 8.82488 4.84153 9.68547C4.86848 9.71144 4.8988 9.73516 4.93361 9.76566V9.7634Z" fill="#48CB81"/>
</g>
</svg>
