<svg width="12" height="12" viewBox="0 0 12 12" fill="none" xmlns="http://www.w3.org/2000/svg">
<g id="Layer_1" clip-path="url(#clip0_2_3306)">
<path id="Vector" d="M7.5539 6L11.8358 1.71808C12.0547 1.49917 12.0547 1.14345 11.8358 0.924544L11.0755 0.164179C10.8566 -0.0547264 10.5008 -0.0547264 10.2819 0.164179L6 4.4461L1.71808 0.164179C1.49917 -0.0547264 1.14345 -0.0547264 0.924544 0.164179L0.164179 0.924544C-0.0547264 1.14345 -0.0547264 1.49917 0.164179 1.71808L4.4461 6L0.164179 10.2819C-0.0547264 10.5008 -0.0547264 10.8566 0.164179 11.0755L0.924544 11.8358C1.14345 12.0547 1.49917 12.0547 1.71808 11.8358L6 7.5539L10.2819 11.8358C10.5008 12.0547 10.8566 12.0547 11.0755 11.8358L11.8358 11.0755C12.0547 10.8566 12.0547 10.5008 11.8358 10.2819L7.5539 6Z" fill="#9EA1AA"/>
</g>
<defs>
<clipPath id="clip0_2_3306">
<rect width="12" height="12" fill="white"/>
</clipPath>
</defs>
</svg>
