<svg width="24" height="24" viewBox="0 0 24 24" fill="none" xmlns="http://www.w3.org/2000/svg">
<path d="M23 9.0433V9.29338C22.914 9.60692 22.8279 9.92169 22.7406 10.2352C22.6585 10.5326 22.4864 10.6645 22.1693 10.667C21.9215 10.6694 21.6749 10.667 21.4323 10.667C21.4271 10.6968 21.4233 10.7055 21.4259 10.708C21.4541 10.7391 21.4811 10.7715 21.5106 10.8013C22.0499 11.3413 22.3182 11.9846 22.3131 12.7373C22.3092 13.3755 22.3131 14.0151 22.3118 14.6533C22.3092 15.2642 22.1076 15.8079 21.7276 16.2956C21.6685 16.3715 21.63 16.481 21.6287 16.5756C21.621 17.2624 21.6287 17.9504 21.6236 18.6372C21.6184 19.4186 21.0291 19.9909 20.2253 19.9983C19.817 20.0021 19.4087 19.9983 19.0004 19.9983C18.0657 19.9983 17.4982 19.4509 17.4969 18.5501C17.4969 18.1495 17.4969 17.7489 17.4969 17.3457H6.49073C6.49073 17.7887 6.49458 18.2192 6.49073 18.6484C6.48302 19.4161 5.8924 19.9896 5.10147 19.9971C4.67134 20.0021 4.24121 19.9996 3.81237 19.9971C2.95211 19.9946 2.3679 19.431 2.36534 18.5999C2.36277 17.9268 2.3679 17.2524 2.36148 16.5793C2.36148 16.4897 2.33324 16.384 2.27803 16.3156C1.86972 15.8005 1.66942 15.2244 1.67584 14.5749C1.68098 14.0051 1.69125 13.4353 1.67328 12.8667C1.6476 12.0194 1.93392 11.3027 2.56307 10.7142C2.56949 10.708 2.56563 10.6906 2.5682 10.6645C2.31783 10.6645 2.06874 10.667 1.81836 10.6645C1.50251 10.6607 1.32789 10.5289 1.24828 10.2315C1.17253 9.94907 1.10063 9.66664 1.03001 9.38421C0.917018 8.93008 1.12631 8.66631 1.60394 8.66631C2.35635 8.66631 3.10875 8.65885 3.86116 8.67129C4.03835 8.67378 4.10768 8.61406 4.16674 8.46351C4.36704 7.95215 4.5789 7.44328 4.79204 6.9369C5.55985 5.12163 7.27395 4.0056 9.30262 4.00187C11.1015 3.99938 12.899 3.99938 14.6979 4.00187C16.7137 4.0056 18.4226 5.11914 19.1917 6.93068C19.4087 7.44328 19.6219 7.95837 19.826 8.47595C19.8825 8.61779 19.9519 8.67502 20.1175 8.67253C20.8558 8.66134 21.5941 8.67751 22.3311 8.66258C22.6495 8.65636 22.8703 8.76087 23 9.04206V9.0433ZM17.4802 9.9951C17.4597 9.93414 17.4455 9.88188 17.425 9.83087C17.1708 9.21251 16.9204 8.59415 16.661 7.97828C16.3015 7.12601 15.5953 6.6694 14.6401 6.66815C12.8785 6.66815 11.1169 6.66815 9.35398 6.66815C8.37944 6.66815 7.67583 7.12975 7.31118 8.00814C7.06595 8.59913 6.82199 9.19136 6.57804 9.78359C6.55107 9.84953 6.53181 9.91796 6.50613 9.99386H17.4789L17.4802 9.9951ZM5.71521 14.6869C5.9566 14.6595 6.3251 14.6471 6.6769 14.5687C7.09676 14.4754 7.2701 14.1768 7.13913 13.7774C6.85923 12.9214 6.25961 12.3329 5.3878 12.0517C4.67648 11.8228 3.93434 12.2819 3.7777 12.9799C3.59409 13.806 4.03193 14.509 4.819 14.6272C5.07194 14.6658 5.33259 14.662 5.71264 14.6857L5.71521 14.6869ZM18.3893 14.6981C18.3893 14.6857 18.3918 14.6732 18.3931 14.6608C18.5716 14.6608 18.7513 14.667 18.9298 14.6608C19.6488 14.6284 20.1175 14.2315 20.2318 13.5622C20.3987 12.5855 19.541 11.7668 18.5986 12.0542C17.7306 12.3192 17.1387 12.914 16.8511 13.7575C16.706 14.1855 16.8909 14.4854 17.348 14.5812C17.6882 14.6521 18.0413 14.662 18.388 14.6994L18.3893 14.6981Z" fill="#883C84"/>
</svg>
