<svg width="16" height="16" viewBox="0 0 16 16" fill="none" xmlns="http://www.w3.org/2000/svg">
<g clip-path="url(#clip0_2_2139)">
<path d="M10.0719 8L15.7811 2.29077C16.073 1.99889 16.073 1.5246 15.7811 1.23273L14.7673 0.218905C14.4754 -0.0729685 14.0011 -0.0729685 13.7092 0.218905L8 5.92814L2.29077 0.218905C1.99889 -0.0729685 1.5246 -0.0729685 1.23273 0.218905L0.218905 1.23273C-0.0729685 1.5246 -0.0729685 1.99889 0.218905 2.29077L5.92814 8L0.218905 13.7092C-0.0729685 14.0011 -0.0729685 14.4754 0.218905 14.7673L1.23273 15.7811C1.5246 16.073 1.99889 16.073 2.29077 15.7811L8 10.0719L13.7092 15.7811C14.0011 16.073 14.4754 16.073 14.7673 15.7811L15.7811 14.7673C16.073 14.4754 16.073 14.0011 15.7811 13.7092L10.0719 8Z" fill="#9EA1AA"/>
</g>
<defs>
<clipPath id="clip0_2_2139">
<rect width="16" height="16" fill="white"/>
</clipPath>
</defs>
</svg>
