<svg width="20" height="20" viewBox="0 0 20 20" fill="none" xmlns="http://www.w3.org/2000/svg">
<g clip-path="url(#clip0_407_3989)">
<path fill-rule="evenodd" clip-rule="evenodd" d="M9.91246 6.19258C9.91246 7.9558 8.46695 9.38517 6.68383 9.38517C4.90071 9.38517 3.4552 7.9558 3.4552 6.19258C3.4552 4.42937 4.90071 3 6.68383 3C8.46695 3 9.91246 4.42937 9.91246 6.19258ZM5.793 10.4254H7.42533C10.6231 10.4254 13.2183 13.0206 13.2183 16.2184H0C0 13.0155 2.59526 10.4254 5.793 10.4254ZM14.552 10.5232C16.0393 10.5232 17.2451 9.33129 17.2451 7.861C17.2451 6.3907 16.0393 5.19879 14.552 5.19879C13.0646 5.19879 11.8589 6.3907 11.8589 7.861C11.8589 9.33129 13.0646 10.5232 14.552 10.5232ZM13.8105 11.3882H15.1699H15.1751C17.8373 11.3882 20 13.5458 20 16.2132H14.7631C14.7631 14.4006 14.0989 12.7425 13.0021 11.4603C13.2647 11.4191 13.5325 11.3882 13.8105 11.3882Z" fill="#C7CBD7"/>
</g>
<defs>
<clipPath id="clip0_407_3989">
<rect width="20" height="20" fill="white"/>
</clipPath>
</defs>
</svg>
