<svg width="14" height="12" viewBox="0 0 14 12" fill="none" xmlns="http://www.w3.org/2000/svg">
<g clip-path="url(#clip0_249_3868)">
<path d="M6.51342 9.91581C6.64186 10.0343 6.81467 10.1 6.99682 10.1C7.18014 10.1 7.35295 10.0354 7.48139 9.91581L11.9838 5.7625C12.1123 5.64402 12.1823 5.48568 12.1823 5.31766C12.1823 5.14963 12.1123 4.99129 11.9838 4.87281L11.5751 4.49583C11.4467 4.37735 11.2751 4.31164 11.0929 4.31164C10.9107 4.31164 10.7333 4.37735 10.6048 4.49583L7.97297 6.91823V0.621488C7.97297 0.274661 7.67872 0 7.30157 0H6.72359C6.34761 0 6.02301 0.274661 6.02301 0.621488V6.94623L3.37597 4.49583C3.24753 4.37735 3.08056 4.31164 2.8984 4.31164C2.71625 4.31164 2.54695 4.37735 2.4185 4.49583L2.011 4.87281C1.88256 4.99129 1.8125 5.14963 1.8125 5.31766C1.8125 5.48568 1.88373 5.64402 2.01217 5.7625L6.51459 9.91581H6.51342Z" fill="#9EA1AA"/>
<path d="M13.6684 10.0989H0.33161C0.148467 10.0989 0 10.2359 0 10.4048V11.6941C0 11.863 0.148467 12 0.33161 12H13.6684C13.8515 12 14 11.863 14 11.6941V10.4048C14 10.2359 13.8515 10.0989 13.6684 10.0989Z" fill="#9EA1AA"/>
</g>
<defs>
<clipPath id="clip0_249_3868">
<rect width="14" height="12" fill="white"/>
</clipPath>
</defs>
</svg>
