<svg width="25" height="24" viewBox="0 0 25 24" fill="none" xmlns="http://www.w3.org/2000/svg">
<rect x="0.5" width="24" height="24" rx="12" fill="#474A4F"/>
<g clip-path="url(#clip0_2_5983)">
<path d="M13.241 7.8557C11.4241 9.6741 9.60567 11.4911 7.78727 13.308C7.67083 13.4245 7.5774 13.5553 7.50552 13.7019C7.46815 13.7781 7.42934 13.8557 7.39771 13.9348C6.99522 14.9439 6.7106 15.986 6.51079 17.0526C6.42023 17.5371 6.76954 17.9554 7.20653 17.9971C7.32009 18.0086 7.4394 17.9913 7.55296 17.9712C8.12507 17.8691 8.68712 17.7211 9.24486 17.5572C9.73791 17.412 10.2281 17.2582 10.6981 17.044C10.898 16.9535 11.0733 16.8356 11.2286 16.6775C13.0326 14.8691 14.8395 13.0637 16.645 11.2582C16.6636 11.2395 16.6895 11.2266 16.6996 11.2194C15.5554 10.0752 14.4226 8.94243 13.2842 7.80396C13.2741 7.81545 13.2597 7.83558 13.2425 7.85427L13.241 7.8557Z" fill="white"/>
<path d="M18.482 8.88792C18.4231 8.62774 18.2822 8.40349 18.1341 8.18643C17.7273 7.5942 17.2329 7.08389 16.6751 6.63253C16.4149 6.42266 16.1389 6.23722 15.8371 6.09204C15.4605 5.90948 15.0867 6.01154 14.8136 6.28322C14.6684 6.42697 14.5247 6.57216 14.3795 6.7159C14.2214 6.87402 14.0647 7.03071 13.9094 7.18452C15.0465 8.32156 16.1778 9.45285 17.3105 10.587C17.3177 10.5798 17.3306 10.5698 17.3421 10.5583C17.654 10.2463 17.9703 9.93584 18.2793 9.61959C18.4791 9.41547 18.5438 9.16391 18.4806 8.88648L18.482 8.88792Z" fill="white"/>
</g>
<defs>
<clipPath id="clip0_2_5983">
<rect width="12.0101" height="12" fill="white" transform="translate(6.495 6)"/>
</clipPath>
</defs>
</svg>
