<svg width="14" height="14" viewBox="0 0 14 14" fill="none" xmlns="http://www.w3.org/2000/svg">
<path fill-rule="evenodd" clip-rule="evenodd" d="M13.5683 2.54959C13.7409 2.80287 13.9051 3.06453 13.9739 3.36813L13.9722 3.36645C14.0459 3.69018 13.9705 3.98371 13.7375 4.22189C13.488 4.47744 13.2345 4.72977 12.9813 4.98167C12.869 5.09352 12.7567 5.20528 12.6448 5.31719C12.6374 5.32469 12.6293 5.33166 12.6223 5.33781C12.6167 5.34268 12.6117 5.34704 12.608 5.35074C11.2873 4.02732 9.96839 2.70726 8.64273 1.38049C8.82373 1.20102 9.00641 1.01819 9.19076 0.833682C9.27539 0.749816 9.35961 0.66553 9.44382 0.581244C9.52804 0.496958 9.61225 0.412672 9.69689 0.328805C10.0153 0.0117893 10.4511 -0.107301 10.8901 0.10572C11.2421 0.275131 11.5639 0.491506 11.8672 0.736397C12.5175 1.26308 13.094 1.85853 13.5683 2.54959ZM1.505 8.52591C3.62505 6.40576 5.7451 4.28561 7.86347 2.16378L7.86515 2.16211C7.87752 2.14869 7.88862 2.13464 7.89807 2.12269C7.90398 2.11522 7.90924 2.10856 7.91375 2.1034L11.8958 6.08874C11.8925 6.09106 11.8879 6.09389 11.8824 6.09723C11.868 6.10598 11.8478 6.11825 11.8321 6.13403C11.4108 6.55568 10.9894 6.97733 10.568 7.39901C8.88397 9.0842 7.1995 10.7698 5.51717 12.4576C5.33617 12.6421 5.13171 12.7796 4.89876 12.8853C4.35073 13.1352 3.77924 13.3147 3.20439 13.4841C2.55413 13.6753 1.89885 13.8481 1.23183 13.9672C1.09943 13.9907 0.960328 14.0108 0.82793 13.9974C0.318448 13.9487 -0.088802 13.4606 0.0167814 12.8954C0.249735 11.6508 0.581569 10.4347 1.05083 9.25722C1.08457 9.17279 1.12534 9.08976 1.16541 9.00814C1.16912 9.00058 1.17283 8.99303 1.17652 8.98549C1.26032 8.81441 1.36925 8.66177 1.505 8.52591Z" fill="#9EA1AA"/>
</svg>
