<svg width="25" height="24" viewBox="0 0 25 24" fill="none" xmlns="http://www.w3.org/2000/svg">
<rect x="0.5" width="24" height="24" rx="12" fill="#F3280D"/>
<g clip-path="url(#clip0_2_5926)">
<path d="M13.7949 12L17.3632 8.43173C17.5456 8.24931 17.5456 7.95287 17.3632 7.77045L16.7295 7.13682C16.5471 6.95439 16.2507 6.95439 16.0683 7.13682L12.5 10.7051L8.93173 7.13682C8.74931 6.95439 8.45287 6.95439 8.27045 7.13682L7.63682 7.77045C7.45439 7.95287 7.45439 8.24931 7.63682 8.43173L11.2051 12L7.63682 15.5683C7.45439 15.7507 7.45439 16.0471 7.63682 16.2295L8.27045 16.8632C8.45287 17.0456 8.74931 17.0456 8.93173 16.8632L12.5 13.2949L16.0683 16.8632C16.2507 17.0456 16.5471 17.0456 16.7295 16.8632L17.3632 16.2295C17.5456 16.0471 17.5456 15.7507 17.3632 15.5683L13.7949 12Z" fill="white"/>
</g>
<defs>
<clipPath id="clip0_2_5926">
<rect width="10" height="10" fill="white" transform="translate(7.5 7)"/>
</clipPath>
</defs>
</svg>
