<svg width="36" height="36" viewBox="0 0 36 36" fill="none" xmlns="http://www.w3.org/2000/svg">
<circle cx="18" cy="18" r="17.5" stroke="#82858E"/>
<g clip-path="url(#clip0_3000_873)">
<path d="M21.284 11.0018H19.4689C17.4299 11 16.1118 12.3509 16.1118 14.4445V16.0338H14.2858C14.1293 16.0338 14 16.1613 14 16.3196V18.6208C14 18.7774 14.1274 18.9066 14.2858 18.9066H16.1118V24.7142C16.1118 24.8708 16.2393 25 16.3977 25H18.7789C18.9373 25 19.0648 24.8726 19.0648 24.7142V18.9066H21.1984C21.3568 18.9066 21.4843 18.7792 21.4843 18.6208V16.3196C21.4843 16.245 21.4551 16.1722 21.4023 16.1176C21.3495 16.0648 21.2767 16.0338 21.2003 16.0338H19.0648V14.6866C19.0648 14.0403 19.2195 13.7108 20.0624 13.7108H21.2858C21.4442 13.7108 21.5717 13.5815 21.5717 13.425V11.2895C21.5717 11.1311 21.4442 11.0037 21.2876 11.0037L21.284 11.0018Z" fill="white"/>
</g>
<defs>
<clipPath id="clip0_3000_873">
<rect width="7.56801" height="14" fill="white" transform="translate(14 11)"/>
</clipPath>
</defs>
</svg>
