<svg width="14" height="15" viewBox="0 0 14 15" fill="none" xmlns="http://www.w3.org/2000/svg">
<g clip-path="url(#clip0_422_1666)">
<path d="M14.0001 1.46399C13.9536 1.75849 13.7707 1.97379 13.59 2.19243C12.0007 4.11897 10.4126 6.04662 8.82769 7.9765C8.78336 8.03004 8.75343 8.11371 8.75343 8.18287C8.749 9.49921 8.75121 12.4888 8.75011 13.8063C8.75011 14.219 8.45419 14.5258 8.06851 14.499C7.9477 14.4912 7.8147 14.4455 7.71385 14.3763C6.98459 13.8732 6.26309 13.3612 5.53937 12.8503C5.3432 12.7108 5.249 12.5167 5.249 12.2735C5.249 11.4748 5.249 9.00391 5.25122 8.20518C5.25122 8.10813 5.22794 8.0345 5.16477 7.95753C3.52781 5.97634 1.89419 3.9918 0.258341 2.00837C-0.104072 1.56773 -0.0841231 1.05235 0.311539 0.71323C0.465592 0.579365 0.646244 0.512433 0.847954 0.502393C0.902261 0.499047 0.957676 0.501278 1.01198 0.501278C5.00407 0.501278 8.99615 0.501278 12.9893 0.501278C13.5745 0.501278 13.8594 0.731079 13.9846 1.30447C13.9868 1.31227 13.9946 1.31897 13.999 1.32678V1.46399H14.0001Z" fill="#9EA1AA"/>
</g>
<defs>
<clipPath id="clip0_422_1666">
<rect width="14" height="14" fill="white" transform="translate(0 0.5)"/>
</clipPath>
</defs>
</svg>
