<svg width="20" height="20" viewBox="0 0 20 20" fill="none" xmlns="http://www.w3.org/2000/svg">
<g clip-path="url(#clip0_52_1634)">
<path fill-rule="evenodd" clip-rule="evenodd" d="M9.17677 0.0413477C14.5187 -0.439946 19.1449 3.3258 19.9019 8.65387L19.9 8.64823C20.6964 14.2602 16.5011 19.4943 10.85 19.9398C10.796 19.9442 10.7419 19.949 10.6877 19.9538C10.5088 19.9695 10.3294 19.9854 10.1511 19.9868C9.49156 19.9943 9.02687 19.5883 9.01376 19.0036C9.00064 18.4452 9.43347 18.0391 10.0668 17.9733C10.2161 17.9576 10.3661 17.944 10.5163 17.9303C11.0335 17.8832 11.5526 17.836 12.0492 17.7063C15.8322 16.7155 18.2305 13.2562 17.957 9.24045C17.7097 5.60066 14.7267 2.52114 10.9737 2.03044C7.77898 1.61307 4.56744 3.2788 3.00102 6.16468C1.43647 9.05056 1.79622 12.6377 3.9004 15.11C3.95342 15.1731 4.00969 15.2321 4.08148 15.3074C4.11878 15.3465 4.16028 15.3901 4.20769 15.4409C4.30971 15.3338 4.40902 15.2298 4.50632 15.1279C4.76104 14.861 5.002 14.6086 5.24198 14.3542C5.56425 14.0139 5.95399 13.8955 6.38869 14.0647C6.84775 14.2451 7.02762 14.6212 7.02575 15.1081C7.02294 15.7332 7.02341 16.3583 7.02388 16.9834C7.02434 17.6086 7.02481 18.2337 7.022 18.8588C7.01826 19.5939 6.63227 19.9887 5.8959 19.9943C5.01795 20.0024 4.13905 20.0009 3.25987 19.9993C2.90817 19.9987 2.55643 19.9981 2.20469 19.9981C1.71378 19.9981 1.31468 19.8439 1.11794 19.3532C0.928692 18.8814 1.10107 18.5035 1.44022 18.1726C1.87492 17.7477 2.30962 17.3228 2.77242 16.8735C2.71762 16.8076 2.66761 16.7485 2.62058 16.6928C2.56148 16.6229 2.50711 16.5586 2.45389 16.4937C-0.0887333 13.3766 -0.695816 9.88718 0.82189 6.18536C2.3321 2.49858 5.20263 0.400438 9.17677 0.0413477ZM9.42402 10.7821C9.20292 10.5452 9.05303 10.1598 9.02867 9.83267L9.03054 9.83455C8.98917 9.28152 8.99723 8.72467 9.00529 8.16741C9.00854 7.94227 9.0118 7.71706 9.0118 7.492C9.0118 7.23123 9.01097 6.97046 9.01014 6.70976C9.00847 6.18857 9.00681 5.66765 9.0118 5.14757C9.01743 4.43691 9.41465 3.9857 10.0161 3.9857C10.6176 3.98758 11.0129 4.43691 11.0167 5.15133C11.0185 5.4323 11.0225 5.7135 11.0266 5.99478C11.0388 6.85409 11.0511 7.71422 11.0017 8.57115C10.9586 9.31189 11.1853 9.83267 11.7324 10.3121C12.2164 10.7352 12.6646 11.2004 13.1126 11.6652C13.2716 11.8302 13.4306 11.9952 13.5912 12.1583C14.1008 12.6772 14.1402 13.2525 13.7092 13.6887C13.2764 14.1267 12.6993 14.0891 12.1859 13.5777C11.9882 13.3806 11.79 13.1841 11.5918 12.9875C10.8597 12.2614 10.1273 11.5351 9.42402 10.7821Z" fill="#C7CBD7"/>
</g>
<defs>
<clipPath id="clip0_52_1634">
<rect width="20" height="20" fill="white"/>
</clipPath>
</defs>
</svg>
