<svg width="36" height="36" viewBox="0 0 36 36" fill="none" xmlns="http://www.w3.org/2000/svg">
<circle cx="18" cy="18" r="17.5" stroke="#82858E"/>
<g clip-path="url(#clip0_3000_879)">
<path d="M21.5852 10H14.4148C11.9807 10 10 11.9807 10 14.4148V21.5833C10 24.0174 11.9807 25.9981 14.4148 25.9981H21.5833C24.0174 25.9981 25.9981 24.0174 25.9981 21.5833V14.4148C25.9981 11.9807 24.0174 10 21.5833 10H21.5852ZM24.5804 21.5852C24.5804 23.237 23.237 24.5804 21.5852 24.5804H14.4148C12.763 24.5804 11.4196 23.237 11.4196 21.5852V14.4148C11.4196 12.763 12.763 11.4196 14.4148 11.4196H21.5833C23.2352 11.4196 24.5786 12.763 24.5786 14.4148V21.5833L24.5804 21.5852Z" fill="white"/>
<path d="M17.9991 13.8778C15.7248 13.8778 13.876 15.7266 13.876 18.0009C13.876 20.2752 15.7248 22.124 17.9991 22.124C20.2734 22.124 22.1222 20.2752 22.1222 18.0009C22.1222 15.7266 20.2715 13.8778 17.9991 13.8778ZM17.9991 20.7026C16.5089 20.7026 15.2956 19.4911 15.2956 17.999C15.2956 16.507 16.5089 15.2955 17.9991 15.2955C19.4893 15.2955 20.7026 16.5089 20.7026 17.999C20.7026 19.4892 19.4893 20.7026 17.9991 20.7026Z" fill="white"/>
<path d="M22.295 12.6738C22.0218 12.6738 21.7524 12.7835 21.5591 12.9786C21.364 13.1718 21.2526 13.4412 21.2526 13.7144C21.2526 13.9875 21.364 14.2569 21.5591 14.4502C21.7524 14.6434 22.02 14.7549 22.295 14.7549C22.5699 14.7549 22.8375 14.6434 23.0308 14.4502C23.224 14.2569 23.3355 13.9875 23.3355 13.7144C23.3355 13.4412 23.224 13.1718 23.0308 12.9786C22.8375 12.7853 22.5699 12.6738 22.295 12.6738Z" fill="white"/>
</g>
<defs>
<clipPath id="clip0_3000_879">
<rect width="16" height="16" fill="white" transform="translate(10 10)"/>
</clipPath>
</defs>
</svg>
