<svg width="24" height="24" viewBox="0 0 24 24" fill="none" xmlns="http://www.w3.org/2000/svg">
<rect width="24" height="24" rx="12" fill="#FEA205"/>
<g clip-path="url(#clip0_2_5951)">
<path d="M11.9944 6.00002C11.5754 6.00284 11.2588 6.32978 11.2513 6.77321C11.2475 7.0156 11.2513 7.25798 11.2513 7.49943C11.2513 7.74182 11.2475 7.9842 11.2513 8.22565C11.2588 8.66721 11.5763 8.99603 11.9944 8.99884C12.4143 9.00166 12.7421 8.6766 12.7487 8.23786C12.7553 7.74558 12.7553 7.25329 12.7487 6.761C12.7431 6.32226 12.4134 5.9972 11.9944 6.00002Z" fill="white"/>
<path d="M8.99857 12.0004C8.99857 11.5908 8.67917 11.2629 8.25644 11.2507C8.00655 11.2432 7.75667 11.2497 7.50679 11.2497C7.24939 11.2497 6.99105 11.2432 6.73366 11.2516C6.32126 11.2657 6.00655 11.5861 5.99998 11.9872C5.9934 12.3978 6.31092 12.7388 6.73084 12.7473C7.23812 12.7576 7.74634 12.7567 8.25456 12.7473C8.67917 12.7398 8.99857 12.4109 8.99951 12.0004H8.99857Z" fill="white"/>
<path d="M17.2381 11.2518C16.7459 11.2452 16.2536 11.2452 15.7614 11.2518C15.3227 11.2574 14.9976 11.5872 15.0004 12.0062C15.0033 12.4242 15.3321 12.7418 15.7736 12.7493C16.0159 12.753 16.2583 12.7493 16.4997 12.7493C16.7421 12.7493 16.9845 12.753 17.2259 12.7493C17.6684 12.7418 17.9953 12.4242 17.9981 12.0052C18.0009 11.5862 17.6759 11.2574 17.2362 11.2518H17.2381Z" fill="white"/>
<path d="M12.7487 15.7632C12.7393 15.3244 12.4143 14.9984 11.9953 15.0012C11.5857 15.0041 11.2588 15.3244 11.2522 15.75C11.2438 16.2498 11.2447 16.7496 11.2522 17.2504C11.2588 17.6759 11.5838 17.9972 11.9934 18.001C12.4133 18.0048 12.7393 17.6797 12.7487 17.241C12.7543 16.9911 12.7496 16.7412 12.7496 16.4913C12.7496 16.2489 12.7543 16.0065 12.7496 15.765L12.7487 15.7632Z" fill="white"/>
<path d="M8.8727 9.91961C9.09722 10.1301 9.3828 10.1498 9.66086 10.0248C9.94174 9.898 10.0827 9.66595 10.1353 9.33713C10.0629 9.17836 10.0235 8.98858 9.91074 8.86645C9.54625 8.47093 9.16391 8.0895 8.77124 7.72216C8.48096 7.45065 8.03099 7.48259 7.7548 7.76256C7.48519 8.03595 7.45137 8.47844 7.71347 8.76123C8.08547 9.16145 8.47345 9.54663 8.87176 9.91961H8.8727Z" fill="white"/>
<path d="M14.6642 10.127C14.8117 10.065 14.992 10.0378 15.1019 9.93632C15.5134 9.55489 15.9164 9.16031 16.2959 8.74788C16.5561 8.4651 16.5082 8.01602 16.233 7.75015C15.9643 7.48991 15.5275 7.44952 15.2522 7.70412C14.8398 8.08555 14.4425 8.48389 14.062 8.89726C13.8544 9.12367 13.8507 9.41585 13.9869 9.6883C14.1193 9.95417 14.3495 10.0876 14.6632 10.127H14.6642Z" fill="white"/>
<path d="M9.65523 13.9725C9.35743 13.8428 9.06903 13.8832 8.8323 14.1134C8.46781 14.4657 8.10708 14.8237 7.75574 15.1891C7.45983 15.4963 7.46828 15.9501 7.76044 16.2413C8.05072 16.5316 8.50539 16.5401 8.81352 16.2432C9.17895 15.8909 9.5425 15.5367 9.88538 15.1628C10.0037 15.0341 10.0573 14.8453 10.14 14.6837C10.0892 14.3408 9.94832 14.1003 9.65616 13.9725H9.65523Z" fill="white"/>
<path d="M15.1846 14.1274C14.8784 13.8315 14.4218 13.8324 14.1306 14.1152C13.8319 14.4055 13.8262 14.8725 14.1296 15.1862C14.4772 15.5451 14.8257 15.904 15.1931 16.2413C15.3227 16.3606 15.5087 16.4179 15.6693 16.5025C16.0047 16.463 16.2837 16.292 16.3983 16.0092C16.5214 15.7058 16.4735 15.423 16.2443 15.1872C15.8967 14.8292 15.5435 14.4751 15.1846 14.1274Z" fill="white"/>
</g>
<defs>
<clipPath id="clip0_2_5951">
<rect width="12" height="12" fill="white" transform="translate(6 6)"/>
</clipPath>
</defs>
</svg>
