<svg width="20" height="20" viewBox="0 0 20 20" fill="none" xmlns="http://www.w3.org/2000/svg">
<path d="M17.1412 8.22986C17.0992 9.73297 16.6549 11.1148 15.9506 12.422C14.8988 14.3764 13.4481 16.0089 11.8051 17.4782C11.2337 17.989 10.6192 18.4519 10.0256 18.9394C9.93816 19.0117 9.87402 19.0257 9.77141 18.9499C7.64793 17.3791 5.767 15.5717 4.33619 13.3327C3.56773 12.1305 3.01383 10.8419 2.76778 9.42278C2.18006 6.02242 4.19043 2.56958 7.44503 1.42563C11.6477 -0.0529881 16.087 2.46113 16.9686 6.8282C17.0619 7.28881 17.0852 7.76225 17.1412 8.22986ZM13.4959 8.2147C13.4994 6.22299 11.896 4.60793 9.90784 4.6021C7.90564 4.59627 6.29058 6.20317 6.28825 8.2042C6.28592 10.2029 7.90564 11.8261 9.89735 11.8203C11.8856 11.8156 13.4924 10.2064 13.4959 8.2147Z" fill="#C7CBD7"/>
</svg>
