<svg width="20" height="20" viewBox="0 0 20 20" fill="none" xmlns="http://www.w3.org/2000/svg">
<g clip-path="url(#clip0_66_804)">
<path d="M1.20167 9.50928L5.76138 4.94956C5.89146 4.81949 6.06528 4.74854 6.24975 4.74854C6.43422 4.74854 6.60805 4.81949 6.73813 4.94956L7.152 5.36343C7.28208 5.49351 7.35421 5.66734 7.35421 5.85181C7.35421 6.03628 7.28208 6.21602 7.152 6.34609L4.49256 9.01144H12.9427C13.3235 9.01144 13.625 9.30943 13.625 9.69138V10.2767C13.625 10.6575 13.3235 10.9862 12.9427 10.9862H4.46182L7.152 13.6669C7.28208 13.797 7.35421 13.9661 7.35421 14.1506C7.35421 14.3351 7.28208 14.5065 7.152 14.6366L6.73813 15.0493C6.60805 15.1794 6.43422 15.2503 6.24975 15.2503C6.06528 15.2503 5.89146 15.1782 5.76138 15.0481L1.20167 10.4884C1.07159 10.3583 0.999457 10.1833 0.999457 9.99883C0.999457 9.81318 1.07041 9.63817 1.20167 9.50809V9.50928Z" fill="#C7CBD7"/>
<path d="M11.0545 16.9129H16.8819V3.08711H11.0557C10.8701 3.08711 10.7199 2.93693 10.7199 2.75128V1.33583C10.7199 1.15018 10.8701 1 11.0557 1H18.6485C18.8342 1 18.9844 1.15018 18.9844 1.33583V18.663C18.9844 18.8486 18.8342 18.9988 18.6485 18.9988H11.0557C10.8701 18.9988 10.7199 18.8486 10.7199 18.663V17.2487C10.7199 17.0631 10.8701 16.9129 11.0557 16.9129H11.0545Z" fill="#C7CBD7"/>
</g>
<defs>
<clipPath id="clip0_66_804">
<rect width="17.9846" height="18" fill="white" transform="matrix(-1 0 0 1 18.9844 1)"/>
</clipPath>
</defs>
</svg>
