<svg width="73" height="62" viewBox="0 0 73 62" fill="none" xmlns="http://www.w3.org/2000/svg">
<path d="M52.2115 0H3.78854C2.24847 0 1 1.24081 1 2.77144V41.2286C1 42.7592 2.24847 44 3.78854 44H52.2115C53.7515 44 55 42.7592 55 41.2286V2.77144C55 1.24081 53.7515 0 52.2115 0Z" fill="#F3F4F6"/>
<path d="M44.5 10H11.5V12H44.5V10Z" fill="#C7CBD7"/>
<path d="M44.5 25H11.5V27H44.5V25Z" fill="#C7CBD7"/>
<path d="M35.5 16H11.5V18H35.5V16Z" fill="#C7CBD7"/>
<path d="M35.5 31H11.5V33H35.5V31Z" fill="#C7CBD7"/>
<path d="M67.9113 25.1H37.0825C35.4053 25.1 34.0469 26.4585 34.0469 28.1356V45.9701C34.0469 47.6472 35.4053 49.0057 37.0825 49.0057H53.1655L63.0678 57.0531C63.6816 57.5227 64.5705 57.0832 64.5705 56.3118V49.009H67.9146C69.5918 49.009 70.9502 47.6506 70.9502 45.9734V28.1356C70.9502 26.4585 69.5918 25.1 67.9146 25.1H67.9113Z" fill="#883C84"/>
</svg>
