<svg width="18" height="18" viewBox="0 0 18 18" fill="none" xmlns="http://www.w3.org/2000/svg">
<g clip-path="url(#clip0_52_121)">
<path d="M9.0008 0C4.02971 0 0 4.02971 0 9.0008C0 13.9719 4.02971 18.0016 9.0008 18.0016C13.9719 18.0016 18.0016 13.9719 18.0016 9.0008C18.0016 4.02971 13.9703 0 9.0008 0ZM13.1026 9.85093H11.319V10.7779H13.1026V11.9771H11.319V13.5941H9.82531V11.9771H8.0418V10.7779H9.82531V9.85093H8.0418V8.65178H9.82531V7.37579C9.82531 6.77702 9.67482 6.33194 9.37383 6.03896C9.07285 5.74598 8.64858 5.59868 8.10104 5.59868C7.5535 5.59868 7.14044 5.74598 6.83465 6.04216C6.53046 6.33674 6.37677 6.78182 6.37677 7.37579V9.71965H4.89425V7.37579C4.89425 6.73859 5.03033 6.19586 5.3041 5.74918C5.57787 5.3025 5.95571 4.96629 6.44081 4.74215C6.92431 4.51801 7.47825 4.40594 8.09944 4.40594C8.72063 4.40594 9.25696 4.51961 9.74366 4.74535C10.2304 4.97109 10.613 5.3089 10.8948 5.75558C11.1766 6.20226 11.3174 6.7418 11.3174 7.37579V8.65178H13.101V9.85093H13.1026Z" fill="#C7CBD7"/>
</g>
<defs>
<clipPath id="clip0_52_121">
<rect width="18" height="18" fill="white"/>
</clipPath>
</defs>
</svg>
