<svg width="20" height="20" viewBox="0 0 20 20" fill="none" xmlns="http://www.w3.org/2000/svg">
<g clip-path="url(#clip0_2_5751)">
<path d="M16.4275 12.6216C16.2914 12.5309 16.246 12.4369 16.2476 12.2749C16.2541 10.2707 16.2573 8.26484 16.2492 6.26062C16.2379 3.35071 14.2855 0.863671 11.4858 0.178318C7.85812 -0.707943 4.23369 1.7953 3.80109 5.49102C3.76869 5.77456 3.75573 6.06296 3.75573 6.34812C3.75249 8.33289 3.75249 10.3193 3.75735 12.304C3.75735 12.4531 3.71036 12.5357 3.58722 12.6167C2.44173 13.3734 1.30271 14.1381 0.157218 14.8948C0.0389415 14.9726 -0.00480446 15.0536 5.61964e-05 15.1945C0.00977752 15.538 0.00329664 15.8831 0.00329664 16.2525H20.0001V15.0033C18.8092 14.2094 17.6216 13.4123 16.4275 12.6249V12.6216Z" fill="#C7CBD7"/>
<path d="M7.50811 17.6911C7.58912 18.5125 7.95854 19.1736 8.66657 19.5997C8.97603 19.786 9.34706 19.8703 9.68893 20.0015H10.3143C10.35 19.9885 10.3856 19.9707 10.4213 19.9642C10.93 19.8768 11.3707 19.6548 11.7385 19.2951C12.2359 18.809 12.4838 18.216 12.5 17.5112H7.50649C7.50649 17.5777 7.50163 17.6344 7.50649 17.6911H7.50811Z" fill="#C7CBD7"/>
</g>
<defs>
<clipPath id="clip0_2_5751">
<rect width="20" height="20" fill="white"/>
</clipPath>
</defs>
</svg>
