<svg width="32" height="32" viewBox="0 0 32 32" fill="none" xmlns="http://www.w3.org/2000/svg">
<circle cx="16" cy="16" r="16" fill="#883C84"/>
<g clip-path="url(#clip0_2_1752)">
<path d="M23.9251 12.0322C23.7234 11.42 23.1606 11.007 22.506 11.0021C21.6365 10.9973 20.7669 10.9985 19.8973 11.0021C19.7862 11.0021 19.7331 10.972 19.6957 10.8645C19.5954 10.5746 19.4843 10.2884 19.3744 10.0022C19.1304 9.36822 18.6014 9.00111 17.9203 8.9999C16.6389 8.99869 15.3587 8.99869 14.0773 8.9999C13.3961 8.9999 12.8659 9.36822 12.6232 10.0034C12.5121 10.2945 12.3998 10.5855 12.2971 10.8802C12.2633 10.9768 12.215 11.0021 12.1171 11.0021C11.2742 10.9985 10.43 10.9997 9.58696 10.9997C8.63768 11.0009 8 11.6386 8 12.5878C8 15.5295 8 18.4713 8 21.4131C8 22.3611 8.63768 22.9999 9.58696 22.9999C13.8406 22.9999 18.0954 22.9999 22.349 22.9999C23.2391 22.9999 23.7548 22.6014 23.9795 21.7416C23.9819 21.7331 23.9928 21.7259 23.9988 21.7186V12.281C23.9734 12.1977 23.9505 12.1144 23.9239 12.031L23.9251 12.0322ZM15.9843 20.7489C13.9215 20.7416 12.2464 19.0546 12.2512 16.9908C12.2548 14.9221 13.9457 13.2423 16.0169 13.2495C18.0797 13.2568 19.7548 14.9426 19.75 17.0077C19.7464 19.0763 18.0543 20.7573 15.9843 20.7489Z" fill="white"/>
<path d="M15.9891 14.2507C14.4819 14.2544 13.25 15.4898 13.25 16.9993C13.25 18.5149 14.4867 19.7515 16.0036 19.7503C17.5193 19.7491 18.7536 18.51 18.75 16.9933C18.7476 15.4777 17.5072 14.2471 15.9891 14.2507Z" fill="white"/>
</g>
<defs>
<clipPath id="clip0_2_1752">
<rect width="16" height="14" fill="white" transform="translate(8 9)"/>
</clipPath>
</defs>
</svg>
