<svg width="14" height="14" viewBox="0 0 14 14" fill="none" xmlns="http://www.w3.org/2000/svg">
<path d="M2.27734 3.50809C2.30238 3.91491 2.32533 4.31339 2.35036 4.71187C2.41921 5.803 2.48806 6.89412 2.55691 7.98421C2.63723 9.25162 2.71651 10.519 2.79579 11.7865C2.81665 12.1192 2.82917 12.452 2.8615 12.7837C2.92096 13.3856 3.30588 13.8195 3.89526 13.9698C3.91925 13.976 3.94115 13.9896 3.96306 14H11.0898C11.2004 13.9593 11.3162 13.928 11.4226 13.8769C11.868 13.662 12.1465 13.3115 12.1872 12.815C12.2508 12.042 12.2915 11.268 12.3405 10.494C12.4208 9.2318 12.5001 7.9696 12.5794 6.7074C12.6441 5.67365 12.7088 4.6399 12.7734 3.60614C12.7755 3.57589 12.7734 3.54564 12.7734 3.50809H2.27734Z" fill="#9EA1AA"/>
<path d="M13.1221 0.875196C12.1895 0.875196 11.258 0.873109 10.3254 0.877282C10.2033 0.877282 10.1262 0.854333 10.0761 0.729156C10.0114 0.565383 9.9217 0.410998 9.84137 0.254526C9.75479 0.0855376 9.61606 0 9.4262 0C8.16087 0 6.89554 0 5.63021 0C5.44036 0 5.30058 0.0834513 5.214 0.25244C5.13055 0.414127 5.04188 0.573728 4.97095 0.74063C4.92505 0.85016 4.86037 0.877282 4.74563 0.877282C3.7922 0.872066 2.83981 0.873109 1.88638 0.875196C1.57761 0.876239 1.40445 1.0494 1.40132 1.35817C1.39923 1.59809 1.40132 1.83697 1.40132 2.07689C1.40132 2.46912 1.55675 2.62454 1.94897 2.62454C3.80263 2.62454 5.65629 2.62454 7.511 2.62454C9.39074 2.62454 11.2705 2.62454 13.1502 2.62454C13.4809 2.62454 13.652 2.45451 13.6541 2.12697C13.6551 1.88704 13.6541 1.64816 13.6541 1.40824C13.6541 1.03688 13.4924 0.875196 13.1231 0.875196H13.1221Z" fill="#9EA1AA"/>
</svg>
