<svg width="20" height="20" viewBox="0 0 20 20" fill="none" xmlns="http://www.w3.org/2000/svg">
<path d="M16.2262 16.2728C16.181 16.2597 16.0863 16.2378 15.9973 16.2014C15.3443 15.9405 14.6913 15.681 14.0427 15.4114C13.9173 15.3589 13.8357 15.3837 13.7249 15.4522C13.327 15.6985 12.9232 15.9361 12.5122 16.1591C12.3956 16.2218 12.3402 16.2874 12.3242 16.4157C12.2323 17.1066 12.1303 17.796 12.0356 18.4869C11.986 18.8572 11.83 19 11.4554 19C10.3272 19 9.19906 19 8.07233 19C7.69627 19 7.54467 18.8601 7.49366 18.4869C7.39746 17.7902 7.29397 17.0934 7.20068 16.3967C7.1861 16.2859 7.13654 16.2349 7.04034 16.1824C6.62055 15.9492 6.20222 15.7087 5.79555 15.4551C5.68622 15.3866 5.61043 15.3808 5.49674 15.4259C4.85247 15.6898 4.20529 15.9463 3.55812 16.2058C3.16311 16.3632 3.00568 16.3078 2.7885 15.9332C2.23607 14.9814 1.68363 14.0281 1.13266 13.0763C0.922762 12.7148 0.95483 12.5443 1.27988 12.2906C1.83377 11.8563 2.3862 11.4204 2.94446 10.9904C3.03775 10.919 3.06107 10.852 3.0567 10.731C3.04212 10.25 3.04067 9.76897 3.05524 9.28796C3.05816 9.16989 3.04504 9.09847 2.95029 9.02559C2.37745 8.58393 1.80899 8.13645 1.24052 7.68896C0.975236 7.48052 0.934423 7.28375 1.10205 6.99223C1.67489 5.9996 2.24919 5.00696 2.82494 4.01579C2.99257 3.72718 3.1908 3.65722 3.49836 3.78112C4.16885 4.04932 4.83935 4.31752 5.5084 4.59155C5.61772 4.63673 5.69206 4.6207 5.79117 4.55802C6.20076 4.30585 6.61472 4.06098 7.03743 3.82922C7.14237 3.77091 7.18902 3.71407 7.2036 3.60037C7.29834 2.90364 7.40037 2.2069 7.49657 1.51016C7.54467 1.14139 7.69772 1 8.07379 1C9.20197 1 10.3302 1 11.4569 1C11.833 1 11.986 1.14139 12.037 1.51308C12.1332 2.20981 12.2367 2.90655 12.33 3.60329C12.3446 3.71407 12.3941 3.76508 12.4903 3.81756C12.916 4.05369 13.3372 4.30002 13.7526 4.55511C13.8474 4.61341 13.9144 4.62653 14.0165 4.58572C14.6724 4.31606 15.3312 4.05369 15.9901 3.7884C16.3588 3.63973 16.5308 3.70095 16.732 4.04932C17.2844 5.00113 17.8354 5.95441 18.3864 6.90768C18.6123 7.29978 18.5817 7.45283 18.2217 7.73561C17.6721 8.1656 17.1255 8.59705 16.5731 9.02267C16.4842 9.09118 16.4711 9.15823 16.474 9.26755C16.4886 9.74273 16.4958 10.2179 16.4769 10.6916C16.4711 10.8359 16.5031 10.9132 16.6125 10.9977C17.1751 11.4306 17.7334 11.8708 18.2916 12.3096C18.5569 12.518 18.5992 12.7163 18.4315 13.0063C17.8558 14.0048 17.2757 15.0018 16.6999 16.0002C16.6052 16.165 16.4784 16.2714 16.2291 16.2743L16.2262 16.2728ZM12.8941 10.0007C12.8926 8.27492 11.4831 6.86979 9.75732 6.86979C8.03152 6.86979 6.63075 8.27929 6.63367 10.0109C6.63659 11.7295 8.0388 13.1288 9.75878 13.1302C11.4875 13.1317 12.8956 11.7265 12.8941 10.0007Z" fill="#C7CBD7"/>
</svg>
