<svg width="32" height="45" viewBox="0 0 32 45" fill="none" xmlns="http://www.w3.org/2000/svg">
<g clip-path="url(#clip0_2017_261)">
<path d="M16 45C16 45 32 25.5013 32 16.034C32 7.17099 24.8205 0 16 0C7.17949 0 0 7.17099 0 16.034C0 25.5013 16 45 16 45Z" fill="#883C84"/>
</g>
<g clip-path="url(#clip1_2017_261)">
<path fill-rule="evenodd" clip-rule="evenodd" d="M10.1226 16.1749H12.7562V19.0279H7.96966L10.1226 16.1749ZM7.57252 19.0074L6.10938 16.1749H9.72543L7.57252 19.0074ZM13.0698 30.5427V19.3358H15.9751V26.725L13.0698 30.5427ZM15.9751 32L13.0698 31.0558L15.9751 27.2381V32ZM25.5901 19.3358L16.2887 31.61V26.8276L21.974 19.3153H25.5901V19.3358ZM24.3778 16.1749L25.8409 19.0279H22.2039L24.3778 16.1749ZM16.2887 16.1749H23.9806L21.8277 19.0074H16.2887V16.1749ZM15.9751 8.45731C15.9751 10.9204 15.9751 13.3834 15.9751 15.8465H13.0698V12.2956L15.9751 8.45731ZM13.0698 7L15.9751 7.94417L13.0698 11.7619V7ZM13.0698 16.1749H15.9751V19.0279H13.0698V16.1749ZM6.3393 15.8465L12.7562 7.41051V12.1724L9.95535 15.8465H6.3393Z" fill="white"/>
</g>
<defs>
<clipPath id="clip0_2017_261">
<rect width="32" height="45" fill="white"/>
</clipPath>
<clipPath id="clip1_2017_261">
<rect width="19.7106" height="25" fill="white" transform="translate(6.10938 7)"/>
</clipPath>
</defs>
</svg>
