<svg width="24" height="24" viewBox="0 0 24 24" fill="none" xmlns="http://www.w3.org/2000/svg">
<rect width="24" height="24" rx="12" fill="#48CB81"/>
<g clip-path="url(#clip0_2_6019)">
<path d="M10.4004 13.7426C10.8409 13.1769 11.2771 12.6156 11.7141 12.0543C12.9879 10.4182 14.2617 8.78213 15.5355 7.14602C15.6737 6.96876 15.7831 6.95486 15.963 7.09649C16.3931 7.43362 16.8223 7.77248 17.2507 8.11135C17.4531 8.27122 17.4653 8.37636 17.308 8.57968C16.0846 10.1506 14.8612 11.7216 13.6379 13.2934C12.7368 14.4507 11.8358 15.6072 10.9356 16.7646C10.6967 17.0713 10.6124 17.0765 10.3309 16.8054C9.12052 15.6411 7.90929 14.4777 6.69807 13.3142C6.54775 13.1691 6.54427 13.057 6.69025 12.9032C7.06995 12.5036 7.44965 12.1039 7.82936 11.7051C7.99531 11.5304 8.0935 11.5295 8.26554 11.6964C8.95282 12.3585 9.64098 13.0205 10.3291 13.6826C10.35 13.7026 10.3735 13.7209 10.4004 13.7443V13.7426Z" fill="white"/>
</g>
<defs>
<clipPath id="clip0_2_6019">
<rect width="10.8333" height="10" fill="white" transform="translate(6.58337 7)"/>
</clipPath>
</defs>
</svg>
