<svg width="18" height="14" viewBox="0 0 18 14" fill="none" xmlns="http://www.w3.org/2000/svg">
<path d="M18.002 4.75181V4.96297C17.9316 5.2277 17.8612 5.49348 17.7897 5.75821C17.7225 6.00929 17.5817 6.12064 17.3223 6.12274C17.1195 6.12484 16.9178 6.12274 16.7193 6.12274C16.7151 6.14795 16.7119 6.15531 16.714 6.15741C16.7371 6.18367 16.7592 6.21099 16.7833 6.2362C17.2246 6.69212 17.4441 7.23524 17.4399 7.87081C17.4368 8.40972 17.4399 8.94969 17.4389 9.48861C17.4368 10.0044 17.2718 10.4635 16.9609 10.8753C16.9126 10.9394 16.881 11.0318 16.88 11.1117C16.8737 11.6915 16.88 12.2725 16.8758 12.8524C16.8716 13.5121 16.3894 13.9953 15.7318 14.0016C15.3977 14.0048 15.0636 14.0016 14.7296 14.0016C13.9648 14.0016 13.5005 13.5394 13.4994 12.7788C13.4994 12.4406 13.4994 12.1023 13.4994 11.7619H4.49437C4.49437 12.1359 4.49752 12.4994 4.49437 12.8618C4.48806 13.51 4.00482 13.9943 3.3577 14.0006C3.00578 14.0048 2.65385 14.0027 2.30298 14.0006C1.59913 13.9985 1.12115 13.5226 1.11905 12.8209C1.11694 12.2525 1.12115 11.6831 1.11589 11.1148C1.11589 11.0392 1.09278 10.9499 1.04761 10.8921C0.713545 10.4572 0.549664 9.9708 0.554916 9.42242C0.559118 8.94129 0.567522 8.46015 0.552815 7.98006C0.531805 7.26466 0.766071 6.65956 1.28083 6.16266C1.28608 6.15741 1.28293 6.1427 1.28503 6.12064C1.08018 6.12064 0.876375 6.12274 0.671524 6.12064C0.413096 6.11749 0.270225 6.00613 0.205093 5.75506C0.143112 5.51659 0.0842832 5.27812 0.0265046 5.03966C-0.0659411 4.65622 0.105294 4.43351 0.496087 4.43351C1.11169 4.43351 1.7273 4.4272 2.3429 4.43771C2.48787 4.43981 2.5446 4.38938 2.59292 4.26227C2.75681 3.83051 2.93014 3.40084 3.10453 2.97328C3.73274 1.44057 5.13518 0.498258 6.795 0.495106C8.26678 0.493005 9.73751 0.493005 11.2093 0.495106C12.8586 0.498258 14.2568 1.43847 14.8861 2.96803C15.0636 3.40084 15.238 3.83576 15.4051 4.27278C15.4513 4.39254 15.508 4.44086 15.6435 4.43876C16.2476 4.4293 16.8516 4.44296 17.4546 4.43035C17.7152 4.4251 17.8958 4.51334 18.002 4.75076V4.75181ZM13.4858 5.55546C13.469 5.50399 13.4574 5.45986 13.4406 5.41679C13.2326 4.89468 13.0277 4.37258 12.8155 3.85257C12.5214 3.13296 11.9436 2.74742 11.162 2.74637C9.7207 2.74637 8.27939 2.74637 6.83703 2.74637C6.03968 2.74637 5.464 3.13611 5.16565 3.87778C4.965 4.37678 4.7654 4.87682 4.5658 5.37687C4.54374 5.43255 4.52798 5.49033 4.50697 5.55441H13.4847L13.4858 5.55546ZM3.85985 9.51697C4.05735 9.49386 4.35885 9.48335 4.64669 9.41717C4.99021 9.33838 5.13203 9.08626 5.02488 8.74904C4.79587 8.02628 4.30527 7.52939 3.59197 7.29197C3.00998 7.09867 2.40278 7.48632 2.27462 8.07566C2.12439 8.7732 2.48262 9.36675 3.12659 9.46655C3.33354 9.49911 3.5468 9.49596 3.85775 9.51592L3.85985 9.51697ZM14.2295 9.52643C14.2295 9.51592 14.2316 9.50541 14.2327 9.49491C14.3787 9.49491 14.5258 9.50016 14.6718 9.49491C15.2601 9.4676 15.6435 9.13248 15.737 8.5673C15.8736 7.74264 15.1719 7.0514 14.4008 7.29407C13.6906 7.51783 13.2063 8.01998 12.971 8.73223C12.8523 9.09361 13.0036 9.34679 13.3776 9.42768C13.656 9.48756 13.9448 9.49596 14.2285 9.52748L14.2295 9.52643Z" fill="#C7CBD7"/>
</svg>
