<svg width="36" height="36" viewBox="0 0 36 36" fill="none" xmlns="http://www.w3.org/2000/svg">
<circle cx="18" cy="18" r="17.5" stroke="#82858E"/>
<g clip-path="url(#clip0_3000_883)">
<path d="M22.6769 12H13.3231C11.4879 12 10 13.4879 10 15.3231V19.9986C10 21.8338 11.4879 23.3217 13.3231 23.3217H22.6769C24.5121 23.3217 26 21.8338 26 19.9986V15.3231C26 13.4879 24.5121 12 22.6769 12ZM20.4301 17.8885L16.0554 19.9754C15.9391 20.0315 15.8038 19.9467 15.8038 19.8168V15.5132C15.8038 15.3819 15.9419 15.2971 16.0581 15.3559L20.4328 17.5726C20.5627 17.6383 20.56 17.8256 20.4287 17.8872L20.4301 17.8885Z" fill="white"/>
</g>
<defs>
<clipPath id="clip0_3000_883">
<rect width="16" height="11.3217" fill="white" transform="translate(10 12)"/>
</clipPath>
</defs>
</svg>
