<svg width="109" height="68" viewBox="0 0 109 68" fill="none" xmlns="http://www.w3.org/2000/svg">
<g id="Layer_1">
<path id="Vector" d="M86.8686 4H26.6476C24.7323 4 23.1797 5.55706 23.1797 7.47779V55.7365C23.1797 57.6572 24.7323 59.2142 26.6476 59.2142H86.8686C88.7839 59.2142 90.3366 57.6572 90.3366 55.7365V7.47779C90.3366 5.55706 88.7839 4 86.8686 4Z" fill="#F3F4F6"/>
<path id="Vector_2" d="M37.1418 26.1535C40.1153 26.1535 42.5258 23.7362 42.5258 20.7542C42.5258 17.7723 40.1153 15.355 37.1418 15.355C34.1683 15.355 31.7578 17.7723 31.7578 20.7542C31.7578 23.7362 34.1683 26.1535 37.1418 26.1535Z" fill="#C7CBD7"/>
<g id="Group">
<path id="Vector_3" d="M62.7961 16.8504H47.3594V19.3588H62.7961V16.8504Z" fill="#C7CBD7"/>
<path id="Vector_4" d="M80.1359 22.1453H47.3594V24.6537H80.1359V22.1453Z" fill="#C7CBD7"/>
</g>
<path id="Vector_5" d="M37.1418 44.2684C40.1153 44.2684 42.5258 41.8511 42.5258 38.8692C42.5258 35.8872 40.1153 33.4699 37.1418 33.4699C34.1683 33.4699 31.7578 35.8872 31.7578 38.8692C31.7578 41.8511 34.1683 44.2684 37.1418 44.2684Z" fill="#C7CBD7"/>
<g id="Vector_6" filter="url(#filter0_d_2_954)">
<path d="M23.1797 36.1174C30.1825 36.1174 35.8594 30.4244 35.8594 23.4017C35.8594 16.379 30.1825 10.686 23.1797 10.686C16.1769 10.686 10.5 16.379 10.5 23.4017C10.5 30.4244 16.1769 36.1174 23.1797 36.1174Z" fill="white"/>
</g>
<g id="Group_2">
<path id="Vector_7" d="M62.7961 34.9653H47.3594V37.4737H62.7961V34.9653Z" fill="#C7CBD7"/>
<path id="Vector_8" d="M80.1359 40.2646H47.3594V42.7729H80.1359V40.2646Z" fill="#C7CBD7"/>
</g>
<path id="Vector_9" d="M28.9203 22.6062H23.9742V17.646H22.3832V22.6062H17.4414V24.2016H22.3832V29.1575H23.9742V24.2016H28.9203V22.6062Z" fill="#883C84"/>
<path id="Vector_10" d="M88.0012 67.0138C98.2256 67.0138 106.514 58.7253 106.514 48.5009C106.514 38.2764 98.2256 29.9879 88.0012 29.9879C77.7768 29.9879 69.4883 38.2764 69.4883 48.5009C69.4883 58.7253 77.7768 67.0138 88.0012 67.0138Z" fill="white"/>
<path id="Vector_11" d="M88.0008 29C77.2477 29 68.5 37.7477 68.5 48.5008C68.5 59.2539 77.2477 68.0016 88.0008 68.0016C98.7539 68.0016 107.502 59.2539 107.502 48.5008C107.502 37.7477 98.7523 29 88.0008 29ZM100.307 60.963C98.6486 57.8939 95.9648 55.7041 92.2586 54.3985C92.1516 54.3606 92.0479 54.3178 91.9046 54.2635C96.4308 51.6028 97.0021 45.6705 93.8244 42.1635C90.841 38.8722 85.6645 38.7043 82.5016 41.8425C80.9358 43.3968 80.1389 45.2951 80.1768 47.5047C80.2278 50.4535 81.6142 52.6598 84.0888 54.2437C84.0328 54.2915 84.0246 54.303 84.0131 54.3079C83.967 54.3244 83.9192 54.3359 83.8731 54.3507C80.1636 55.5922 77.4371 57.7985 75.7017 60.9696C72.4762 57.7902 70.4741 53.3727 70.4741 48.4975C70.4758 38.8377 78.3377 30.9758 88.0008 30.9758C97.664 30.9758 105.526 38.8377 105.526 48.5008C105.526 53.3727 103.527 57.7853 100.308 60.9646L100.307 60.963Z" fill="#873C83"/>
</g>
<defs>
<filter id="filter0_d_2_954" x="0.5" y="0.686035" width="45.3594" height="45.4313" filterUnits="userSpaceOnUse" color-interpolation-filters="sRGB">
<feFlood flood-opacity="0" result="BackgroundImageFix"/>
<feColorMatrix in="SourceAlpha" type="matrix" values="0 0 0 0 0 0 0 0 0 0 0 0 0 0 0 0 0 0 127 0" result="hardAlpha"/>
<feOffset/>
<feGaussianBlur stdDeviation="5"/>
<feColorMatrix type="matrix" values="0 0 0 0 0.619608 0 0 0 0 0.631373 0 0 0 0 0.666667 0 0 0 0.25 0"/>
<feBlend mode="normal" in2="BackgroundImageFix" result="effect1_dropShadow_2_954"/>
<feBlend mode="normal" in="SourceGraphic" in2="effect1_dropShadow_2_954" result="shape"/>
</filter>
</defs>
</svg>
