<svg width="12" height="8" viewBox="0 0 12 8" fill="none" xmlns="http://www.w3.org/2000/svg">
<path d="M11.769 0.726161L11.296 0.237429C11.1478 0.083554 10.9494 -0.000957489 10.738 -0.000957489C10.5265 -0.000957489 10.322 0.083554 10.1731 0.237429L5.99941 4.54353L1.80956 0.238226C1.66061 0.0843513 1.46767 -0.00016021 1.25621 -0.00016021C1.04475 -0.00016021 0.849496 0.0843513 0.700548 0.238226L0.229006 0.726958C0.0800576 0.880833 -0.000976563 1.08494 -0.000976563 1.30339C-0.000976563 1.52184 0.0808293 1.72675 0.229778 1.87982L5.43912 7.26145C5.58806 7.41533 5.78718 7.49984 5.99941 7.49984C6.21164 7.49984 6.41075 7.41613 6.5597 7.26145L11.769 1.87982C11.918 1.72595 11.999 1.52184 11.999 1.30339C11.999 1.08494 11.9172 0.880035 11.769 0.726958V0.726161Z" fill="#82858E"/>
</svg>
