<svg width="121" height="48" viewBox="0 0 121 48" fill="none" xmlns="http://www.w3.org/2000/svg">
<g clip-path="url(#clip0_3000_847)">
<path fill-rule="evenodd" clip-rule="evenodd" d="M61.5567 31.5271H68.532V28.3744H61.5567V16.4729H58.4039V28.4138L61.5567 31.5271ZM107.862 16.4729H111.015V22.4236H117.163H117.202V16.4729H120.355V31.5271H117.202V25.5764H117.163H111.015V31.5271H107.862V16.4729ZM94.6601 16.4729H102.621V19.6256H94.6601V22.4631H102.621V28.4138L99.468 31.5665H91.5074V28.4138H99.468V25.5764H91.5074V19.6256L94.6601 16.4729ZM76.9261 22.4236V19.5862C78.936 19.5862 81.1429 19.5862 83.1133 19.5862V22.4236H76.9261ZM83.1133 16.4729C81.1034 16.4729 78.8966 16.4729 76.9261 16.4729L73.7734 19.6256V31.5271H76.9261V25.5764H83.1133V31.5271H86.266V19.6256L83.1133 16.4729ZM45.202 16.4729H53.1626V19.6256H45.202V22.4631H51.5862V25.6158H45.202V31.5271H42.0493V19.6256L45.202 16.4729Z" fill="#883C84"/>
<path fill-rule="evenodd" clip-rule="evenodd" d="M7.5665 17.6158H12.532V23.0936H3.50739L7.5665 17.6158ZM2.75862 23.0542L0 17.6158H6.81773L2.75862 23.0542ZM13.1232 45.202V23.6847H18.601V37.8719L13.1232 45.202ZM18.601 48L13.1232 46.1872L18.601 38.8571V48ZM36.7291 23.6847L19.1921 47.2512V38.069L29.9113 23.6453H36.7291V23.6847ZM34.4433 17.6158L37.202 23.0936H30.3448L34.4433 17.6158ZM19.1921 17.6158H33.6946L29.6355 23.0542H19.1921V17.6158ZM18.601 2.79803C18.601 7.52709 18.601 12.2562 18.601 16.9852H13.1232V10.1675L18.601 2.79803ZM13.1232 0L18.601 1.81281L13.1232 9.14286V0ZM13.1232 17.6158H18.601V23.0936H13.1232V17.6158ZM0.433498 16.9852L12.532 0.788177V9.93103L7.25123 16.9852H0.433498Z" fill="#883C84"/>
</g>
<defs>
<clipPath id="clip0_3000_847">
<rect width="120.355" height="48" fill="white"/>
</clipPath>
</defs>
</svg>
