<svg width="14" height="14" viewBox="0 0 14 14" fill="none" xmlns="http://www.w3.org/2000/svg">
<g id="Layer_1" clip-path="url(#clip0_361_2827)">
<path id="Vector" d="M13.5204 2.99769H2.43416L4.32508 1.11343C4.41673 1.02178 4.46706 0.90306 4.46706 0.772946C4.46706 0.642833 4.41673 0.522692 4.32508 0.431043L4.03399 0.1409C3.94234 0.0492506 3.82077 -0.000610352 3.69066 -0.000610352C3.56055 -0.000610352 3.4385 0.0497254 3.34733 0.141375L0.141985 3.34719C0.0498609 3.43884 0 3.56136 0 3.69147C0 3.82206 0.0498609 3.94458 0.141985 4.03623L3.34733 7.24157C3.43898 7.33322 3.56055 7.38308 3.69066 7.38308C3.82077 7.38308 3.94281 7.33275 4.03399 7.24157L4.32508 6.95048C4.41673 6.8593 4.46706 6.73726 4.46706 6.60715C4.46706 6.47704 4.41673 6.3512 4.32508 6.25955L2.45506 4.38573H13.5204C13.7882 4.38573 14 4.17584 14 3.90801V3.4963C14 3.22848 13.7882 2.99769 13.5204 2.99769Z" fill="#883C84"/>
<path id="Vector_2" d="M10.6531 6.7583C10.5615 6.66665 10.4399 6.61679 10.3098 6.61679C10.1797 6.61679 10.0577 6.66713 9.96649 6.7583L9.6754 7.04939C9.58375 7.14057 9.53341 7.26261 9.53341 7.39272C9.53341 7.52283 9.58375 7.64867 9.6754 7.74032L11.5454 9.61415H0.479615C0.21179 9.61415 0 9.82404 0 10.0919V10.5036C0 10.7714 0.21179 11.0022 0.479615 11.0022H11.5663L9.6754 12.8864C9.58375 12.9781 9.53341 13.0968 9.53341 13.2269C9.53341 13.357 9.58375 13.4772 9.6754 13.5688L9.96649 13.859C10.0581 13.9506 10.1797 14.0005 10.3098 14.0005C10.4399 14.0005 10.562 13.9501 10.6531 13.8585L13.8585 10.6532C13.9501 10.5615 14.0005 10.439 14.0005 10.3084C14.0005 10.1778 13.9506 10.0553 13.8585 9.96365L10.6531 6.7583Z" fill="#883C84"/>
</g>
<defs>
<clipPath id="clip0_361_2827">
<rect width="14" height="14" fill="white"/>
</clipPath>
</defs>
</svg>
